<svg width="20" height="20" viewBox="0 0 20 20" fill="none" xmlns="http://www.w3.org/2000/svg">
<path d="M10.0001 10.8337C10.4603 10.8337 10.8334 10.4606 10.8334 10.0003C10.8334 9.54009 10.4603 9.16699 10.0001 9.16699C9.53984 9.16699 9.16675 9.54009 9.16675 10.0003C9.16675 10.4606 9.53984 10.8337 10.0001 10.8337Z" stroke="white" stroke-width="1.66667" stroke-linecap="round" stroke-linejoin="round"/>
<path d="M10.0001 4.99967C10.4603 4.99967 10.8334 4.62658 10.8334 4.16634C10.8334 3.7061 10.4603 3.33301 10.0001 3.33301C9.53984 3.33301 9.16675 3.7061 9.16675 4.16634C9.16675 4.62658 9.53984 4.99967 10.0001 4.99967Z" stroke="white" stroke-width="1.66667" stroke-linecap="round" stroke-linejoin="round"/>
<path d="M10.0001 16.6667C10.4603 16.6667 10.8334 16.2936 10.8334 15.8333C10.8334 15.3731 10.4603 15 10.0001 15C9.53984 15 9.16675 15.3731 9.16675 15.8333C9.16675 16.2936 9.53984 16.6667 10.0001 16.6667Z" stroke="white" stroke-width="1.66667" stroke-linecap="round" stroke-linejoin="round"/>
</svg>
