<svg width="20" height="20" viewBox="0 0 20 20" fill="none" xmlns="http://www.w3.org/2000/svg">
<path d="M11.1751 10.0002L16.4251 4.75849C16.582 4.60157 16.6702 4.38874 16.6702 4.16682C16.6702 3.9449 16.582 3.73207 16.4251 3.57515C16.2682 3.41823 16.0554 3.33008 15.8334 3.33008C15.6115 3.33008 15.3987 3.41823 15.2418 3.57515L10.0001 8.82515L4.75845 3.57515C4.60153 3.41823 4.3887 3.33008 4.16678 3.33008C3.94486 3.33008 3.73203 3.41823 3.57511 3.57515C3.41819 3.73207 3.33004 3.9449 3.33004 4.16682C3.33004 4.38874 3.41819 4.60157 3.57511 4.75849L8.82511 10.0002L3.57511 15.2418C3.497 15.3193 3.43501 15.4115 3.3927 15.513C3.3504 15.6146 3.32861 15.7235 3.32861 15.8335C3.32861 15.9435 3.3504 16.0524 3.3927 16.154C3.43501 16.2555 3.497 16.3477 3.57511 16.4252C3.65258 16.5033 3.74475 16.5653 3.8463 16.6076C3.94785 16.6499 4.05677 16.6717 4.16678 16.6717C4.27679 16.6717 4.38571 16.6499 4.48726 16.6076C4.58881 16.5653 4.68098 16.5033 4.75845 16.4252L10.0001 11.1752L15.2418 16.4252C15.3192 16.5033 15.4114 16.5653 15.513 16.6076C15.6145 16.6499 15.7234 16.6717 15.8334 16.6717C15.9435 16.6717 16.0524 16.6499 16.1539 16.6076C16.2555 16.5653 16.3476 16.5033 16.4251 16.4252C16.5032 16.3477 16.5652 16.2555 16.6075 16.154C16.6498 16.0524 16.6716 15.9435 16.6716 15.8335C16.6716 15.7235 16.6498 15.6146 16.6075 15.513C16.5652 15.4115 16.5032 15.3193 16.4251 15.2418L11.1751 10.0002Z" fill="#D9D9D9"/>
</svg>
