<svg width="76" height="21" viewBox="0 0 76 21" fill="none" xmlns="http://www.w3.org/2000/svg">
<path d="M18.6134 21L11.777 0.892912H7.09493L0.287244 21H5.19912L5.8885 18.5584H13.0122L13.7015 21H18.6134ZM9.45033 5.97713L11.9781 14.9104H6.92258L9.45033 5.97713ZM36.6295 8.16019C36.6295 3.9377 33.6134 0.892912 29.4196 0.892912H20.8598V21H25.5131V15.4275H27.9547L31.1144 21H36.3997L32.8666 14.6232C35.1645 13.4742 36.6295 11.0901 36.6295 8.16019ZM28.7015 4.68454C30.5686 4.68454 31.9187 6.14948 31.9187 8.16019C31.9187 10.1709 30.5686 11.6358 28.7015 11.6358H25.5131V4.68454H28.7015ZM47.395 21V5.02923H52.9389V0.892912H37.2553V5.02923H42.7704V21H47.395ZM59.6794 21V0.892912H55.0261V21H59.6794ZM75.8757 21V17.2658H68.2351V12.8423H75.8757V9.19427H68.2351V4.62709H75.8757V0.892912H63.5817V21H75.8757Z" fill="white"/>
</svg>
