<svg width="36" height="36" viewBox="0 0 36 36" fill="none" xmlns="http://www.w3.org/2000/svg">
<path d="M29.25 4.5H6.75C6.15326 4.5 5.58097 4.73705 5.15901 5.15901C4.73705 5.58097 4.5 6.15326 4.5 6.75V29.25C4.5 29.8467 4.73705 30.419 5.15901 30.841C5.58097 31.2629 6.15326 31.5 6.75 31.5H29.25C29.8467 31.5 30.419 31.2629 30.841 30.841C31.2629 30.419 31.5 29.8467 31.5 29.25V6.75C31.5 6.15326 31.2629 5.58097 30.841 5.15901C30.419 4.73705 29.8467 4.5 29.25 4.5Z" stroke="#161616" stroke-width="3" stroke-linecap="round" stroke-linejoin="round"/>
<path d="M31.5 27L23.25 19.5L15.75 26.25L10.5 21.75L4.5 26.25M13.5 17.25C14.4946 17.25 15.4484 16.8549 16.1517 16.1517C16.8549 15.4484 17.25 14.4946 17.25 13.5C17.25 12.5054 16.8549 11.5516 16.1517 10.8483C15.4484 10.1451 14.4946 9.75 13.5 9.75C12.5054 9.75 11.5516 10.1451 10.8483 10.8483C10.1451 11.5516 9.75 12.5054 9.75 13.5C9.75 14.4946 10.1451 15.4484 10.8483 16.1517C11.5516 16.8549 12.5054 17.25 13.5 17.25Z" stroke="#161616" stroke-width="3" stroke-linecap="round" stroke-linejoin="round"/>
</svg>
