<svg width="26" height="24" viewBox="0 0 26 24" fill="none" xmlns="http://www.w3.org/2000/svg">
<path d="M13.7048 13H11.5963V7H13.7048M13.7048 17H11.5963V15H13.7048M12.6506 2C11.2661 2 9.89529 2.25866 8.61625 2.7612C7.33722 3.26375 6.17506 4.00035 5.19613 4.92893C3.21909 6.8043 2.1084 9.34784 2.1084 12C2.1084 14.6522 3.21909 17.1957 5.19613 19.0711C6.17506 19.9997 7.33722 20.7362 8.61625 21.2388C9.89529 21.7413 11.2661 22 12.6506 22C15.4465 22 18.128 20.9464 20.105 19.0711C22.082 17.1957 23.1927 14.6522 23.1927 12C23.1927 10.6868 22.9201 9.38642 22.3903 8.17317C21.8605 6.95991 21.0839 5.85752 20.105 4.92893C19.1261 4.00035 17.9639 3.26375 16.6849 2.7612C15.4058 2.25866 14.035 2 12.6506 2Z" fill="#E1FCAD"/>
</svg>
